<?xml version="1.0" encoding="UTF-8"?>
<svg id="Layer_1" data-name="Layer 1" xmlns="http://www.w3.org/2000/svg" viewBox="0 0 2123.19 1095.98">
  <defs>
    <style>
      .cls-1 {
        fill: #ff1515;
      }
    </style>
  </defs>
  <g>
    <path d="M613.89,752.32c-34.34,0-60.73-9.84-79.14-29.53-18.43-19.68-27.64-47.26-27.64-82.74,0-59.73,23.69-122.73,71.06-188.99,47.38-66.27,91.44-99.41,132.18-99.41,18.53,0,34.5,10.03,47.89,30.05,13.39,20.04,20.08,41.26,20.08,63.68,0,13.51-2.92,25.13-8.76,34.86-5.83,9.73-11.72,14.58-17.68,14.58-13.27,0-22.65-13.39-28.14-40.17-6.18-28.83-15.1-43.24-26.79-43.24-23.79,0-51.95,28.27-84.44,84.79-32.5,56.54-48.76,104.25-48.76,143.17s22.08,58.36,66.25,58.36c33.65,0,73.25-15.79,118.79-47.37,16.03-11.23,27.82-16.83,35.37-16.84,7.78,0,11.67,4.47,11.67,13.4,0,17.39-20.48,39.3-61.45,65.75-40.97,26.43-81.14,39.64-120.49,39.64Z"/>
    <path d="M1048.96,612.97c-28.13,37.78-55.96,66.1-83.48,84.99-27.53,18.89-52.75,28.33-75.66,28.33-15.47,0-28.83-6.53-40.09-19.59-11.25-13.06-16.87-29.85-16.87-50.34,0-52.85,23.61-109.76,70.83-170.75,47.22-60.99,94.14-91.48,140.76-91.48,16.88,0,29.44,9.65,37.68,28.94,2.62,6.42,6.73,9.63,12.37,9.63,16.07,0,24.11,6.23,24.11,18.69,0,6.23-1,14.78-3.01,25.63-10.85,59.27-16.29,101.07-16.29,125.38,0,48.62,9.24,77.76,27.74,87.4,8.84,4.82,13.25,10.75,13.25,17.78,0,6.23-4.32,12.51-12.96,18.83-8.63,6.34-16.97,9.5-25.01,9.5-15.47,0-28.23-10.66-38.29-31.95-10.04-21.3-15.07-51.64-15.07-91.02ZM1030.58,443.27c-26.52,0-57.37,24.87-92.53,74.6-35.16,49.74-52.75,90.98-52.75,123.73,0,23.12,7.63,34.67,22.91,34.67,22.1,0,52.73-22.31,91.92-66.91,39.19-44.61,58.78-85.6,58.78-122.97,0-28.74-9.44-43.11-28.33-43.11Z"/>
    <path d="M1299.93,418.55c20.69-1.6,40.19-3.5,58.47-5.73,18.09-2.01,33.16-3.01,45.22-3.01,15.26,0,24.91,1.41,28.93,4.22,4.01,2.82,6.03,7.74,6.03,14.78,0,16.27-11.36,25.12-34.06,26.52-29.13,1.81-55.97,4.33-80.48,7.54-24.51,3.21-37.72,5.87-39.63,7.98-1.92,2.12-7.99,26.02-18.23,71.74-10.25,45.71-15.37,75.4-15.37,89.07,0,22.1,2.91,36.82,8.75,44.15,5.82,7.35,14.56,11.01,26.22,11.01,17.28,0,41.3-12.96,72.04-38.89,11.85-10.65,20.99-15.98,27.42-15.98,8.65,0,12.96,4.63,12.96,13.88,0,14.46-13.92,33.2-41.75,56.2-27.83,23-56.31,34.51-85.44,34.51-48.63,0-72.94-28.63-72.94-85.9,0-20.7,5.02-52.75,15.07-96.14,9.84-43.2,14.78-69.12,14.78-77.77,0-3.02-2.41-4.52-7.23-4.52l-31.36,2.71c-25.72,0-38.58-10.25-38.58-30.74,0-11.65,5.93-17.48,17.79-17.48h62.09c4.23,0,7.93-1.91,11.16-5.74,3.21-3.81,7.93-16.62,14.17-38.42,6.22-21.81,11.76-43.36,16.57-64.66,4.82-21.1,14.27-31.65,28.33-31.65,8.65,0,15.37,3.02,20.2,9.05,4.83,6.03,7.24,11.65,7.24,16.87,0,2.82-3.62,17.19-10.85,43.11l-17.48,63.29Z"/>
    <path d="M1518.02,739.85c-30.15,0-53.31-8.63-69.48-25.92-16.17-17.28-24.25-41.49-24.25-72.64,0-52.44,20.79-107.75,62.38-165.91,41.6-58.18,80.28-87.27,116.04-87.27,16.28,0,30.3,8.8,42.05,26.37,11.75,17.59,17.63,36.22,17.63,55.91,0,11.86-2.56,22.06-7.69,30.6-5.12,8.54-10.29,12.8-15.52,12.8-11.65,0-19.89-11.75-24.72-35.27-5.42-25.31-13.25-37.97-23.51-37.97-20.9,0-45.61,24.82-74.14,74.44-28.54,49.64-42.81,91.53-42.81,125.69s19.39,51.24,58.17,51.24c29.54,0,64.3-13.86,104.29-41.59,14.07-9.85,24.42-14.78,31.05-14.78s10.25,3.92,10.25,11.75c0,15.27-17.99,34.51-53.95,57.73-35.97,23.2-71.23,34.8-105.79,34.8Z"/>
    <path d="M1767.17,632.25c74.75-138.04,136.33-207.06,184.76-207.06,12.86,0,23.31,7.34,31.34,22,8.04,14.67,14.57,47.22,19.59,97.66,5.03,53.65,16.38,92.43,34.06,116.34,9.05,12.26,13.57,21.3,13.57,27.13,0,5.23-3.02,10.05-9.05,14.47-6.02,4.42-12.45,6.63-19.28,6.63-15.68,0-29.54-8.78-41.6-26.37-12.05-17.58-19.79-48.48-23.21-92.68-3.42-41.79-7.03-69.12-10.85-81.98-3.81-12.86-10.14-19.29-18.98-19.29-21.1,0-63.6,55.16-127.49,165.47-19.09,32.96-33.16,54.51-42.2,64.65-9.05,10.16-17.29,15.23-24.72,15.23-8.85,0-16.27-2.62-22.3-7.83-6.03-5.23-9.05-11.66-9.05-19.3,0-5.62,1.61-16.48,4.82-32.55,24.71-127.59,44.2-253.79,58.47-378.57,3.21-29.13,8.4-48.53,15.53-58.17,7.12-9.65,13.11-14.47,17.93-14.47,8.63,0,16.47,3.52,23.51,10.55,7.03,7.03,10.55,16.78,10.55,29.24,0,36.98-9.05,87.71-27.13,152.21-8.85,31.95-18.19,72.54-28.03,121.77-9.85,49.23-14.78,79.67-14.78,91.33,0,2.41,1.1,3.62,3.33,3.62h1.2Z"/>
    <path d="M460.47,444.34c8.06-15.77,88.57-78.51,90.86-76.83.01,0,.02,0,.04-.02,2.07-1.35,4-2.59,6.21-3.98,43.97-27.74,86.68-45.11,122.71-55.29,73.19-20.4,134.1-28.67,175.29-38.68,13.9-3.29,22.68-8.83,25.89-17.15,3.2-8.34,1.77-16.67-4.62-24.9-3.54-4.58-13.75-9.2-30.49-13.01-16.69-3.75-43.52-2.53-77.99,6.5-148.07,38.14-271.26,116.22-355.37,213.23-10.7,12.21-16.79,20.85-19.25,25.61-3.28,6.45-3.19,12.93-.01,19.33,3.2,6.41,8.59,11.1,16.04,14.26,25.99,5.16,39.05-34.88,50.68-49.06Z"/>
    <path d="M379.31,409.93c4.72-16.59,72.52-90.09,75.24-88.77,0,0,0-.02.01-.03,1.79-1.62,3.47-3.13,5.42-4.83,38.47-33.65,77.93-56.84,112.17-71.91,69.75-30.27,129.22-46.04,167.58-61.29,12.98-5.07,20.04-11.83,20.59-20.69.56-8.85-3.52-17.18-12.62-24.62-4.99-4.16-16.66-7.39-34.62-8.85-17.94-1.39-44.29,3.73-76.26,17.71-137.4,59.24-244.16,154.87-306.11,262.36-7.9,13.48-12.07,22.81-13.45,27.75-1.84,6.75-.43,12.84,3.9,18.3,4.35,5.51,10.43,8.97,18.15,10.65,25.81.29,31.31-40.23,40-55.78Z"/>
    <path d="M137.57,744.44c76.08-251.91,168.65-414.74,171.54-413.88,0,0,65.62-88.35,97.14-108.48,64.24-40.7,94.39-73.68,129.96-94.66,12.06-7,17.98-14.75,17.17-23.65-.82-8.83,1.36-13.73-8.75-19.71-5.59-3.32-12.15-9-30.13-7.66-17.94,1.39-43.91,15.63-71.49,36.98C223.17,283.49,132.21,528.3,67.51,751.02c-4.36,15.04,3.96,22.51,3.33,27.59-.77,6.93,1.57,12.72,6.67,17.48,5.16,4.78,21.28,9.18,29.16,9.62,25.56-3.7,24.73-44.6,30.9-61.27Z"/>
    <path d="M814.39,777.24c-10.67-16.7-14.52-13.41-30.4-10.68-16.87,2.91-93.02,58.17-128.17,64.09-150.89,24.78-265.05,55.81-357.49,144.9-11.73,11.2-18.59,19.26-21.45,23.79-3.84,6.13-4.35,12.59-1.74,19.25,2.6,6.66,7.56,11.81,14.69,15.62,20.49,6.03,35.24-17.96,46.93-34.34.05-.03,101.31-70.59,151.32-82.61,44.59-10.72,167.01-32.28,219.43-52.03.11-.02.22-.04.34-.08,2.81-.67,8.33-3.23,15.27-6.86.1-.04.25-.11.35-.17h-.03c27.48-14.4,77.71-46.04,80.83-52.41,3.92-8,15.75-19.69,10.12-28.47Z"/>
    <g>
      <path class="cls-1" d="M780.72,541.74c0-3.12-2.28-6.88-5.03-8.33,0,0-19.89-10.54-36.1-10.54-31.24,0-47.74,18.89-47.74,42.18s16.5,42.17,47.74,42.17c16.21,0,36.1-10.54,36.1-10.54,2.75-1.47,5.02-5.21,5.02-8.33v-46.62Z"/>
      <path d="M815.83,573.35c-1.74-.67-3.63-.24-4.91.96l-9.92-3.88c.3-1.77.45-3.58.45-5.46s-.15-3.69-.45-5.47l9.92-3.87c1.28,1.18,3.18,1.63,4.91.96,2.4-.95,3.59-3.66,2.65-6.05-.94-2.42-3.64-3.61-6.06-2.68-1.74.7-2.82,2.3-2.95,4.05l-9.39,3.67c-2.26-7.33-7.38-13.25-15.43-16.39.19.86.28,1.71.28,2.55v46.62c0,.79-.09,1.59-.26,2.38,8.05-3.12,13.14-9.05,15.41-16.36l9.39,3.66c.14,1.76,1.22,3.36,2.95,4.02,2.41.95,5.13-.25,6.06-2.65.95-2.41-.25-5.13-2.65-6.06Z"/>
    </g>
  </g>
  <g>
    <path d="M712.45,546.61h7.34v14.54h14.47v7.34h-14.47v14.54h-7.34v-14.54h-14.47v-7.34h14.47v-14.54Z"/>
    <path d="M755.65,546.61h7.34v14.54h14.47v7.34h-14.47v14.54h-7.34v-14.54h-14.47v-7.34h14.47v-14.54Z"/>
  </g>
  <g>
    <path class="cls-1" d="M1962.15,312.27c-1.04,3.82-3.93,5.73-8.67,5.74-1.27-.75-3.29-1.41-6.04-1.98-1.89-.69-8.48-.99-19.78-.91-12.61-.25-22.24.29-28.9,1.63-1.79.36-3.56,1.05-5.3,2.08-1.74,1.03-2.77,1.49-3.08,1.37-1.66-.32-5.01-5.29-10.05-14.94-1.54-2.29-3.03-4.72-4.47-7.27-1.45-2.55-1.78-5.06-1-7.52.32-.89,7.93-7.6,22.81-20.12,18.27-15.33,32.88-28.38,43.8-39.16,17.02-17.09,28.08-31.5,33.18-43.24-9.66,1.11-21.18,7.33-34.56,18.66-.86.41-1.68,1.45-2.47,3.11-.78,1.67-1.5,2.74-2.15,3.23-1.65,1.28-3.48,1.56-5.47.83-3.46-1.26-6.91-4.83-10.34-10.71-1.59-2.17-3.17-4.33-4.75-6.5-1.91-2.57-2.69-4.52-2.33-5.84.86-3.01,5.55-7.74,14.06-14.19,9.12-6.8,18.38-12.04,27.79-15.7,11.28-4.57,20.21-5.66,26.82-3.26,2.51.92,4.54,2.77,6.07,5.57,1.53,2.8,2.97,5.6,4.33,8.41,5.88,10.24,8.82,18.97,8.8,26.2-.05,1.43-.44,3.17-1.18,5.21-3.25,8.94-12.43,22.09-27.53,39.44-14.26,16.36-28.14,30.04-41.63,41.03,3.71-.09,8.91-.37,15.61-.83.77-.15,2.19-.65,4.28-1.48,1.37-.51,2.51-.53,3.4-.06,2.38,1.3,4.6,6.2,6.67,14.68,2.07,8.49,2.77,13.99,2.1,16.49Z"/>
    <path class="cls-1" d="M2093.83,247.82c-3.99,8.67-12.66,17.67-26.02,26.98,6.63,14.71,7.42,29.02,2.35,42.94-5.21,14.3-15.39,26.15-30.55,35.52-13.71,8.32-24.82,11.28-33.33,8.91-3.45-.97-8.5-8.44-15.15-22.44-6.43-13.62-9.24-21.73-8.41-24.32.96-2.97,3.09-5.24,6.39-6.79,3.29-1.55,6.01-1.86,8.17-.93,1.42.66,2.92,3.88,4.49,9.66,1.57,5.78,3.61,9.49,6.1,11.12,3.88,2.71,11.62-.47,23.23-9.55,11.06-8.56,17.57-15.51,19.52-20.88.84-2.3.05-3.89-2.36-4.76-1.68-.61-4.04-.31-7.09.89-2.19.8-4.36,1.63-6.52,2.51-2.16.88-3.98.91-5.46.08-1.69-.9-3.8-3.99-6.33-9.25s-4.32-10.39-5.34-15.4c-.2-1.08-.09-2.2.33-3.35,1.3-3.57,3.65-5.62,7.03-6.12,4.77-.72,11.27-3.56,19.48-8.53,11.94-7.37,21.02-16.5,27.24-27.4-4.61-.38-11.01,2.68-19.18,9.18-8.18,6.5-12.99,9.77-14.43,9.82-2.32.17-5.56-2.75-9.72-8.74-4.17-6-6.53-10.84-7.09-14.51-.13-.62-.05-1.32.23-2.09.74-2.04,3.23-4.47,7.45-7.27,13.02-8.71,21.76-14.13,26.22-16.27,9.37-4.54,17.07-5.5,23.11-2.87,6.73,3.03,11.95,10.79,15.65,23.27,3.7,12.48,3.7,22.68,0,30.58Z"/>
  </g>
</svg>